<?xml version="1.0" encoding="utf-8"?>
<!-- Generator: Adobe Illustrator 22.0.0, SVG Export Plug-In . SVG Version: 6.00 Build 0)  -->
<svg version="1.1" id="图层_1" xmlns="http://www.w3.org/2000/svg" xmlns:xlink="http://www.w3.org/1999/xlink" x="0px" y="0px"
	 viewBox="0 0 1027 1024" style="enable-background:new 0 0 1027 1024;" xml:space="preserve">
<style type="text/css">
	.st0{fill:#FFFFFF;}
	.st1{fill:#C1C1C1;}
	.st2{fill:#616163;}
</style>
<g>
	<path class="st0" d="M1017.2,854.3v110.1c0,28.9-23.4,52.2-52.2,52.2H64.5c-30.2,0-54.6-24.5-54.6-54.6V171.1V61.6
		c0-28.9,23.4-52.2,52.2-52.2h902.9c28.9,0,52.2,23.4,52.2,52.2V854.3z"/>
	<path class="st1" d="M530.7,772.2c-20.5,36.9,6.1,82.2,48.3,82.2l438.2-0.1l0,0L854.1,692.2H575.9"/>
	<path class="st1" d="M496.3,253.2c20.5-36.9-6.1-82.2-48.3-82.2L9.8,171.1l0,0l163.1,162.1h278.2"/>
	<polyline points="172.8,333.2 172.8,831.6 451.1,333.2 	"/>
	<polyline points="854.2,692.2 854.2,193.8 575.9,692.2 	"/>
	<path class="st2" d="M963,9.1h-5.2l-2,3.6l0,0H854.2v181.1l-0.1,0.2v498.2l163.1,162.1V64.6C1017.2,34,993.5,9.1,963,9.1z"/>
	<path class="st2" d="M172.9,333.2L9.8,171.1v789.7c0,28.7,21,52.3,49,55c0,0.3,0,0.5,0,0.5H64h5.2h103.6V831.7l0.1-0.2V333.2z"/>
	<path class="st2" d="M964.9,1020H64.5c-32,0-58-26-58-58V61.6C6.5,30.9,31.4,6,62.1,6h902.9c30.7,0,55.6,24.9,55.6,55.6v902.9
		C1020.5,995.1,995.6,1020,964.9,1020z M62.1,12.7c-27,0-48.9,21.9-48.9,48.9V962c0,28.3,23,51.3,51.3,51.3h900.4
		c27,0,48.9-21.9,48.9-48.9V61.6c0-27-21.9-48.9-48.9-48.9H62.1z"/>
</g>
</svg>
